<svg width="27" height="27" viewBox="0 0 27 27" fill="none" xmlns="http://www.w3.org/2000/svg">
<g filter="url(#filter0_d_113_3171)">
<path d="M6.17151 16.0809C2.74745 19.505 6.49745 23.255 9.92151 19.8309L18.7499 11.0025L14.9999 7.25249L6.17151 16.0809ZM16.0699 6.18249L19.8199 9.93249C23.3913 6.36112 19.6413 2.61112 16.0699 6.18249Z" fill="white"/>
<path d="M10.4872 20.3966C9.54288 21.341 8.84403 21.4978 8.28194 21.398C7.63741 21.2836 6.92866 20.7973 6.06565 19.9343C5.2026 19.0713 4.71714 18.3633 4.60327 17.7197C4.50397 17.1584 4.66111 16.46 5.60585 15.5152L16.6225 4.49857C17.5804 3.56221 18.2363 3.43859 18.7499 3.54556C19.3646 3.67357 20.0423 4.17367 20.9343 5.06569C21.8263 5.95765 22.3271 6.63603 22.4556 7.25148C22.563 7.76609 22.4394 8.42277 21.5021 9.3811C21.5016 9.3816 21.5011 9.38211 21.5006 9.38261L21.4473 9.43657L21.4441 9.43971L10.4872 20.3966Z" fill="white" stroke="black" stroke-width="1.6"/>
<line x1="11.0657" y1="8.93431" x2="17.0657" y2="14.9343" stroke="black" stroke-width="1.6"/>
</g>
<defs>
<filter id="filter0_d_113_3171" x="0.7771" y="0.713074" width="25.5112" height="25.5114" filterUnits="userSpaceOnUse" color-interpolation-filters="sRGB">
<feFlood flood-opacity="0" result="BackgroundImageFix"/>
<feColorMatrix in="SourceAlpha" type="matrix" values="0 0 0 0 0 0 0 0 0 0 0 0 0 0 0 0 0 0 127 0" result="hardAlpha"/>
<feOffset dy="1"/>
<feGaussianBlur stdDeviation="1.5"/>
<feComposite in2="hardAlpha" operator="out"/>
<feColorMatrix type="matrix" values="0 0 0 0 0 0 0 0 0 0 0 0 0 0 0 0 0 0 0.2 0"/>
<feBlend mode="normal" in2="BackgroundImageFix" result="effect1_dropShadow_113_3171"/>
<feBlend mode="normal" in="SourceGraphic" in2="effect1_dropShadow_113_3171" result="shape"/>
</filter>
</defs>
</svg>
