<svg width="20" height="21" viewBox="0 0 20 21" fill="none" xmlns="http://www.w3.org/2000/svg">
<path d="M10.0122 20.4634C15.3827 20.4634 19.8293 16.0072 19.8293 10.6463C19.8293 5.27578 15.3731 0.829224 10.0026 0.829224C4.64167 0.829224 0.195114 5.27578 0.195114 10.6463C0.195114 16.0072 4.6513 20.4634 10.0122 20.4634ZM4.25669 4.40957C5.21915 3.51448 6.39334 2.84076 7.68304 2.4654C7.01894 3.13912 6.45109 4.09196 6.02761 5.26616C5.34427 5.04479 4.74754 4.75605 4.25669 4.40957ZM12.351 2.47503C13.631 2.85039 14.7956 3.52411 15.7677 4.41919C15.2768 4.76568 14.6801 5.04479 13.9968 5.26616C13.5733 4.10158 13.0054 3.14875 12.351 2.47503ZM7.26918 5.58377C7.80816 4.11121 8.55888 3.0525 9.38659 2.68677V5.80513C8.62625 5.77626 7.92365 5.69926 7.26918 5.58377ZM10.6474 2.68677C11.4655 3.0525 12.2162 4.11121 12.7552 5.58377C12.1007 5.69926 11.3981 5.77626 10.6474 5.80513V2.68677ZM1.52331 10.0111C1.65805 8.2594 2.3414 6.63285 3.4001 5.3239C3.99682 5.77626 4.76679 6.15162 5.66188 6.44035C5.38276 7.51831 5.20952 8.72138 5.1614 10.0111H1.52331ZM14.863 10.0111C14.8149 8.72138 14.6416 7.51831 14.3625 6.44035C15.2576 6.15162 16.0276 5.77626 16.6147 5.33353C17.683 6.63285 18.3663 8.2594 18.5011 10.0111H14.863ZM10.6474 10.0111V7.06595C11.5136 7.03708 12.3413 6.93121 13.1209 6.76759C13.3712 7.75892 13.5252 8.85613 13.5733 10.0111H10.6474ZM6.45109 10.0111C6.49922 8.85613 6.66283 7.75892 6.90345 6.76759C7.68304 6.93121 8.51075 7.03708 9.38659 7.06595V10.0111H6.45109ZM1.52331 11.2719H5.1614C5.20952 12.5905 5.38276 13.8032 5.66188 14.8907C4.77642 15.1795 4.01607 15.5548 3.42897 15.9976C2.35102 14.679 1.65805 13.0428 1.52331 11.2719ZM6.45109 11.2719H9.38659V14.2748C8.52038 14.3036 7.69266 14.4095 6.9227 14.5635C6.66283 13.5625 6.48959 12.4461 6.45109 11.2719ZM10.6474 14.2748V11.2719H13.5733C13.5348 12.4461 13.3615 13.5625 13.1017 14.5635C12.3413 14.4095 11.504 14.3036 10.6474 14.2748ZM14.3625 14.8907C14.6416 13.8032 14.8149 12.5905 14.863 11.2719H18.5011C18.3663 13.0428 17.6734 14.679 16.5954 15.9976C16.0083 15.5548 15.248 15.1795 14.3625 14.8907ZM10.6474 15.5356C11.3885 15.5645 12.0911 15.6318 12.7359 15.757C12.197 17.191 11.4559 18.2497 10.6474 18.6155V15.5356ZM7.28843 15.757C7.93328 15.6318 8.63587 15.5645 9.38659 15.5356V18.6155C8.5685 18.2497 7.82741 17.191 7.28843 15.757ZM13.9871 16.0649C14.6609 16.2863 15.248 16.5654 15.7388 16.9023C14.7764 17.7781 13.631 18.4422 12.3606 18.8176C13.0054 18.1535 13.5637 17.2103 13.9871 16.0649ZM4.28556 16.9023C4.77642 16.5654 5.36351 16.2863 6.03724 16.0649C6.46072 17.2103 7.01894 18.1535 7.67341 18.8176C6.40297 18.4422 5.24802 17.7781 4.28556 16.9023Z" fill="#1D1D1D"/>
</svg>
