<svg width="24" height="24" viewBox="0 0 23 23" fill="none" xmlns="http://www.w3.org/2000/svg">
<path d="M11.5 23C17.7912 23 23 17.7799 23 11.5C23 5.20882 17.7799 0 11.4887 0C5.20882 0 0 5.20882 0 11.5C0 17.7799 5.2201 23 11.5 23ZM4.75784 4.19412C5.88529 3.14559 7.26078 2.35637 8.77157 1.91667C7.99363 2.70588 7.32843 3.82206 6.83235 5.19755C6.03186 4.93824 5.33284 4.6 4.75784 4.19412ZM14.2397 1.92794C15.7392 2.36765 17.1034 3.15686 18.2422 4.20539C17.6672 4.61127 16.9681 4.93824 16.1676 5.19755C15.6716 3.83333 15.0064 2.71716 14.2397 1.92794ZM8.28676 5.56961C8.91814 3.84461 9.79755 2.60441 10.7672 2.17598V5.82892C9.87647 5.7951 9.05343 5.7049 8.28676 5.56961ZM12.2441 2.17598C13.2025 2.60441 14.0819 3.84461 14.7132 5.56961C13.9466 5.7049 13.1235 5.7951 12.2441 5.82892V2.17598ZM1.55588 10.7559C1.71373 8.70392 2.51422 6.79853 3.75441 5.2652C4.45343 5.7951 5.35539 6.2348 6.40392 6.57304C6.07696 7.83578 5.87402 9.2451 5.81765 10.7559H1.55588ZM17.1824 10.7559C17.126 9.2451 16.923 7.83578 16.5961 6.57304C17.6446 6.2348 18.5466 5.7951 19.2343 5.27647C20.4858 6.79853 21.2863 8.70392 21.4441 10.7559H17.1824ZM12.2441 10.7559V7.30588C13.2588 7.27206 14.2284 7.14804 15.1417 6.95637C15.4348 8.11765 15.6152 9.40294 15.6716 10.7559H12.2441ZM7.32843 10.7559C7.3848 9.40294 7.57647 8.11765 7.85833 6.95637C8.77157 7.14804 9.74118 7.27206 10.7672 7.30588V10.7559H7.32843ZM1.55588 12.2328H5.81765C5.87402 13.7775 6.07696 15.198 6.40392 16.4721C5.36667 16.8103 4.47598 17.25 3.78824 17.7686C2.52549 16.224 1.71373 14.3074 1.55588 12.2328ZM7.32843 12.2328H10.7672V15.7505C9.75245 15.7843 8.78284 15.9083 7.88088 16.0887C7.57647 14.9162 7.37353 13.6083 7.32843 12.2328ZM12.2441 15.7505V12.2328H15.6716C15.6265 13.6083 15.4235 14.9162 15.1191 16.0887C14.2284 15.9083 13.2475 15.7843 12.2441 15.7505ZM16.5961 16.4721C16.923 15.198 17.126 13.7775 17.1824 12.2328H21.4441C21.2863 14.3074 20.4745 16.224 19.2118 17.7686C18.524 17.25 17.6333 16.8103 16.5961 16.4721ZM12.2441 17.2275C13.1123 17.2613 13.9353 17.3402 14.6907 17.4868C14.0593 19.1667 13.1912 20.4069 12.2441 20.8353V17.2275ZM8.30931 17.4868C9.06471 17.3402 9.88774 17.2613 10.7672 17.2275V20.8353C9.80882 20.4069 8.94069 19.1667 8.30931 17.4868ZM16.1564 17.8475C16.9456 18.1069 17.6333 18.4338 18.2083 18.8284C17.0809 19.8544 15.7392 20.6324 14.251 21.0721C15.0064 20.2941 15.6603 19.1892 16.1564 17.8475ZM4.79167 18.8284C5.36667 18.4338 6.05441 18.1069 6.84363 17.8475C7.33971 19.1892 7.99363 20.2941 8.76029 21.0721C7.27206 20.6324 5.91912 19.8544 4.79167 18.8284Z" fill="#1D1D1D"/>
</svg>
