<svg width="24" height="24" viewBox="0 0 24 24" fill="none" xmlns="http://www.w3.org/2000/svg">
<path d="M11.5952 23.1903C17.9384 23.1903 23.1903 17.927 23.1903 11.5952C23.1903 5.25192 17.927 0 11.5838 0C5.25192 0 0 5.25192 0 11.5952C0 17.927 5.26329 23.1903 11.5952 23.1903ZM11.5952 21.2578C6.22955 21.2578 1.94389 16.9608 1.94389 11.5952C1.94389 6.22955 6.21819 1.93253 11.5838 1.93253C16.9494 1.93253 21.2464 6.22955 21.2578 11.5952C21.2691 16.9608 16.9608 21.2578 11.5952 21.2578ZM11.8907 18.2226C14.6304 18.2226 16.9835 16.5401 17.7906 14.4712C17.8588 14.3348 17.8702 14.187 17.8702 14.1302C17.8702 13.8914 17.6769 13.7323 17.495 13.7323C17.4155 13.7323 17.3359 13.7437 17.2222 13.7891C16.7448 13.9483 15.9377 14.1188 15.1533 14.1188C11.7088 14.1188 9.50348 11.9589 9.50348 8.50311C9.50348 7.78694 9.69673 6.77521 9.90135 6.24092C9.96956 6.09314 9.96956 6.0022 9.96956 5.94536C9.96956 5.77484 9.84451 5.58159 9.60579 5.58159C9.52621 5.58159 9.37843 5.59296 9.23065 5.66116C6.87752 6.59332 5.29739 9.13971 5.29739 11.7998C5.29739 15.5398 8.16208 18.2226 11.8907 18.2226Z" fill="#1D1D1D"/>
</svg>
