<svg width="21" height="21" viewBox="0 0 21 21" fill="none" xmlns="http://www.w3.org/2000/svg">
<path d="M10.1422 20.6258C15.5572 20.6258 20.0405 16.1328 20.0405 10.7275C20.0405 5.31257 15.5475 0.829224 10.1325 0.829224C4.72725 0.829224 0.243904 5.31257 0.243904 10.7275C0.243904 16.1328 4.73696 20.6258 10.1422 20.6258ZM10.1422 18.9761C5.56182 18.9761 1.90333 15.3079 1.90333 10.7275C1.90333 6.14714 5.55211 2.47894 10.1325 2.47894C14.7129 2.47894 18.3811 6.14714 18.3908 10.7275C18.4005 15.3079 14.7226 18.9761 10.1422 18.9761ZM10.3945 16.3851C12.7332 16.3851 14.742 14.9489 15.431 13.1827C15.4892 13.0662 15.4989 12.9401 15.4989 12.8916C15.4989 12.6878 15.334 12.5519 15.1787 12.5519C15.1108 12.5519 15.0428 12.5616 14.9458 12.6004C14.5382 12.7363 13.8492 12.8819 13.1796 12.8819C10.2392 12.8819 8.35663 11.0381 8.35663 8.08798C8.35663 7.47661 8.5216 6.61294 8.69628 6.15684C8.7545 6.03068 8.7545 5.95305 8.7545 5.90453C8.7545 5.75897 8.64776 5.59399 8.44397 5.59399C8.37604 5.59399 8.24988 5.6037 8.12373 5.66192C6.11496 6.45767 4.76607 8.63141 4.76607 10.9022C4.76607 14.0949 7.21153 16.3851 10.3945 16.3851Z" fill="#1D1D1D"/>
</svg>
